<svg xmlns="http://www.w3.org/2000/svg" xmlns:xlink="http://www.w3.org/1999/xlink" width="20px" height="20px" viewBox="0 0 20 20" version="1.1">
    <!-- Generator: sketchtool 52.6 (67491) - http://www.bohemiancoding.com/sketch -->
    <title>975920D3-73AD-416C-8F48-AD6BF4A6885D</title>
    <desc>Created with sketchtool.</desc>
    <g id="Design-Variation-5" stroke="none" stroke-width="1" fill="none" fill-rule="evenodd">
        <g id="web-20" transform="translate(-920.000000, -192.000000)" fill="#000000">
            <g id="Fill-2-Copy" transform="translate(920.000000, 192.000000)">
                <path d="M8.86699587,9.86882461 L0.186910577,18.6078036 C-0.053990131,18.8519243 -0.053990131,19.2449084 0.186910577,19.4874864 C0.306786446,19.6097395 0.465344305,19.669902 0.623902164,19.669902 C0.780928063,19.669902 0.939485922,19.6097395 1.05936179,19.4874864 L9.80378941,10.6821744 L18.549749,19.4874864 C18.6692419,19.6097395 18.8277997,19.669902 18.9848256,19.669902 C19.1433835,19.669902 19.3007924,19.6097395 19.4218172,19.4874864 C19.6627179,19.2449084 19.6627179,18.8519243 19.4218172,18.6078036 L10.7432639,9.86882461 L19.427945,1.12213246 C19.6684628,0.879554445 19.6684628,0.486570348 19.427945,0.243992334 C19.1870443,0.00141431997 18.7963945,0.00141431997 18.5554938,0.243992334 L9.80532137,9.0554748 L1.05323395,0.243992334 C0.812333243,0.00141431997 0.422066435,0.00141431997 0.181165727,0.243992334 C-0.059734981,0.486570348 -0.059734981,0.879554445 0.181165727,1.12213246 L8.86699587,9.86882461 Z" id="Fill-1"/>
            </g>
        </g>
    </g>
</svg>