<svg width="170" height="181" viewBox="0 0 170 181" fill="none" xmlns="http://www.w3.org/2000/svg">
<path d="M170 12.8142C170 57.8458 170 102.841 170 147.873C168.979 150.494 167.227 152.277 164.273 152.569C164.236 145.615 164.2 138.699 164.236 131.746C164.236 130.435 163.835 129.925 162.485 129.962C160.26 130.035 157.998 129.925 155.773 129.925C155.663 124.829 156.137 119.732 155.481 114.672C153.73 101.203 141.873 90.6093 128.303 90.3908C114.075 90.1724 101.781 100.147 99.6288 113.799C98.7897 119.15 99.3369 124.574 99.264 129.962C97.2575 129.998 95.2511 129.998 93.2811 130.035C90.8369 130.035 90.8369 130.035 90.8369 132.547C90.8005 139.245 90.764 145.943 90.7275 152.641C89.8884 152.605 89.0129 152.569 88.1739 152.569C61.3605 152.569 34.5472 152.532 7.77042 152.605C4.08587 152.605 1.3863 151.513 0.072998 147.909C0.072998 100.22 0.072998 52.5308 0.072998 4.84176C0.072998 4.76895 0.18244 4.73254 0.255401 4.73254C0.291882 5.49703 0.364844 6.29791 0.364844 7.06239C0.364844 19.2213 0.364844 31.3802 0.364844 43.5391C0.364844 44.1579 0.18244 44.8496 0.620208 45.6505C1.42278 43.9759 2.69961 43.0294 4.30476 42.5198C5.7275 42.0829 7.18673 42.3741 8.64596 42.3013C40.1653 42.3013 71.6846 42.2285 103.24 42.4105C108.311 42.4469 112.069 41.4276 114.403 36.5859C115.315 34.6565 117.212 33.8556 119.401 33.8556C133.373 33.892 147.346 33.892 161.318 33.892C164.418 33.71 167.483 33.7464 169.672 37.2776C169.672 28.6499 169.672 20.7138 169.672 12.7778L169.854 12.8142H170Z" fill="#F8D355"/>
<path d="M164.163 180.636C164.163 180.745 164.163 180.891 164.163 181C139.721 181 115.279 181 90.8369 181C90.8369 180.891 90.8369 180.782 90.8369 180.672C91.8584 180.672 92.9163 180.636 93.9378 180.636C117.322 180.672 140.742 180.672 164.163 180.636Z" fill="#ECEBE9"/>
<path d="M164.163 180.636C140.742 180.636 117.322 180.636 93.9378 180.672C92.9163 180.672 91.8584 180.672 90.8369 180.709C90.5086 178.743 90.7275 176.741 90.691 174.739C90.6545 167.385 90.6545 159.995 90.6545 152.641C90.691 145.943 90.7275 139.245 90.7639 132.546C90.7639 130.035 90.7639 130.035 93.2082 130.035C95.2146 130.035 97.221 129.998 99.191 129.962C102.948 129.962 106.706 129.962 110.464 129.962C121.809 129.962 133.118 129.962 144.464 129.962C148.221 129.962 151.979 129.962 155.736 129.962C157.961 129.998 160.223 130.071 162.448 129.998C163.798 129.962 164.2 130.471 164.2 131.782C164.163 138.735 164.236 145.652 164.236 152.605C164.236 161.16 164.2 169.751 164.2 178.306C164.2 179.071 164.163 179.871 164.163 180.636ZM121.845 152.532C121.773 154.098 122.356 155.444 123.487 156.427C124.363 157.192 124.691 157.993 124.618 159.121C124.582 159.777 124.618 160.468 124.691 161.123C124.91 162.762 126.114 163.89 127.573 163.817C129.069 163.745 130.163 162.58 130.273 160.941C130.309 160.468 130.345 159.959 130.273 159.485C130.127 158.211 130.528 157.265 131.549 156.318C133.446 154.571 133.665 151.804 132.352 149.62C131.039 147.436 128.448 146.38 126.077 147.035C123.487 147.763 121.809 149.911 121.845 152.532Z" fill="#006F7E"/>
<path d="M0.255371 4.7325C0.72962 1.96581 2.51717 0.546058 5.1073 0C18.7146 0 32.3584 0 45.9657 0C47.8627 0.364039 49.2854 1.41975 50.3069 3.05792C50.8176 3.89521 51.4013 4.65969 51.912 5.49698C53.2253 7.572 55.0858 8.4821 57.5665 8.4821C77.5944 8.44569 97.6588 8.4821 117.687 8.4821C133.009 8.4821 148.294 8.4821 163.616 8.4821C166.936 8.4821 168.833 9.86545 169.672 12.8506C169.672 20.7866 169.672 28.7226 169.672 37.3504C167.483 33.8192 164.418 33.7828 161.318 33.9648C161.391 32.0354 161.792 30.106 161.354 28.1766C161.391 26.4292 161.464 24.6818 161.464 22.898C161.464 20.2041 161.464 20.2041 158.873 20.2041C109.624 20.2041 60.412 20.2041 11.1631 20.2041C10.7253 20.2041 10.324 20.2405 9.88627 20.2041C8.97425 20.1313 8.53649 20.4954 8.57297 21.4419C8.64593 23.6989 8.64593 25.9195 8.68241 28.1766C8.35408 32.9091 8.75537 37.6052 8.68241 42.3377C7.22318 42.4105 5.76395 42.1193 4.34121 42.5561C2.73606 43.0294 1.45923 44.0123 0.656659 45.6868C0.21889 44.8496 0.401294 44.1943 0.401294 43.5754C0.364813 31.3801 0.364813 19.2212 0.364813 7.06235C0.364813 6.29787 0.291852 5.49698 0.255371 4.7325Z" fill="#F1A539"/>
<path d="M161.354 28.1402C161.792 30.0696 161.391 31.999 161.318 33.9284C147.346 33.9284 133.373 33.9284 119.401 33.892C117.213 33.892 115.316 34.6929 114.404 36.6223C112.105 41.4276 108.348 42.4469 103.24 42.4469C71.7211 42.2285 40.2018 42.3377 8.64602 42.3377C8.71898 37.6052 8.31769 32.9091 8.64602 28.1766C9.26619 28.1766 9.84988 28.1402 10.4701 28.1402C60.1567 28.1402 109.843 28.1402 159.494 28.1402C160.114 28.1038 160.734 28.1402 161.354 28.1402Z" fill="#FEFEFE"/>
<path d="M110.464 129.889C106.706 129.889 102.949 129.889 99.191 129.889C99.3005 124.501 98.7168 119.113 99.5558 113.726C101.708 100.074 114.002 90.0995 128.23 90.318C141.8 90.5364 153.657 101.166 155.408 114.599C156.064 119.659 155.59 124.756 155.7 129.853C151.942 129.853 148.185 129.853 144.427 129.853C144.427 126.139 144.427 122.463 144.391 118.749C144.281 109.066 136.766 101.53 127.318 101.603C117.942 101.64 110.537 109.139 110.464 118.749C110.464 122.499 110.5 126.212 110.464 129.889Z" fill="#415464"/>
<path d="M110.464 129.889C110.464 126.176 110.464 122.499 110.5 118.786C110.573 109.175 117.979 101.676 127.354 101.64C136.803 101.603 144.318 109.139 144.427 118.786C144.464 122.499 144.464 126.176 144.464 129.889C133.118 129.925 121.809 129.925 110.464 129.889Z" fill="#F8D355"/>
<path d="M121.809 152.532C121.809 149.947 123.451 147.763 126.041 147.035C128.412 146.38 131.002 147.436 132.316 149.62C133.629 151.804 133.41 154.571 131.513 156.318C130.491 157.265 130.127 158.175 130.236 159.485C130.273 159.959 130.273 160.468 130.236 160.941C130.127 162.616 129.032 163.781 127.537 163.817C126.077 163.854 124.873 162.762 124.655 161.123C124.582 160.468 124.545 159.777 124.582 159.121C124.655 158.029 124.363 157.192 123.451 156.427C122.32 155.444 121.773 154.061 121.809 152.532Z" fill="white"/>
<path d="M161.354 28.1402C160.734 28.1402 160.15 28.1038 159.53 28.1038C109.843 28.1038 60.1567 28.1038 10.5065 28.1038C9.88631 28.1038 9.30262 28.1402 8.68245 28.1402C8.64597 25.8831 8.64597 23.6625 8.573 21.4054C8.53652 20.4589 9.01077 20.0949 9.88631 20.1677C10.3241 20.2041 10.7254 20.1677 11.1631 20.1677C60.4121 20.1677 109.625 20.1677 158.873 20.1677C161.464 20.1677 161.5 20.1677 161.464 22.8616C161.427 24.6454 161.391 26.3928 161.354 28.1402Z" fill="#ECEBE9"/>
</svg>
