<svg width="24" height="24" viewBox="0 0 24 24" fill="none" xmlns="http://www.w3.org/2000/svg">
<g clip-path="url(#clip0_58_532)">
<path d="M11.9719 23.9944C9.59781 23.9944 7.22931 24 4.85519 23.9944C2.49795 23.9831 0.596402 22.4585 0.10695 20.1857C0.0281878 19.8312 0.00568425 19.4599 0.00568425 19.0999C5.83741e-05 14.3629 5.83741e-05 9.62588 0.00568425 4.89451C0.00568425 2.37974 1.65969 0.444441 4.13508 0.0450036C4.34886 0.0112483 4.56265 0.00562242 4.78205 -3.458e-06C6.76799 -0.00562934 8.75955 -0.00562934 10.7455 -3.458e-06C11.4543 -3.458e-06 11.9719 0.478197 12.0057 1.13642C12.0394 1.83966 11.4994 2.38537 10.7511 2.391C9.10836 2.39662 7.47123 2.391 5.82847 2.391C5.50217 2.391 5.17024 2.38537 4.84394 2.391C3.43184 2.42475 2.41919 3.43178 2.39668 4.83826C2.38543 5.55274 2.39668 6.2616 2.39668 6.97609C2.39668 10.9986 2.39668 15.0211 2.39668 19.0436C2.39668 20.3094 3.10554 21.2602 4.25322 21.5303C4.47826 21.5809 4.71454 21.6034 4.95083 21.6034C9.65969 21.609 14.3629 21.609 19.0718 21.6034C20.5908 21.6034 21.6091 20.5795 21.6091 19.0549C21.6147 17.1252 21.6091 15.1899 21.6091 13.2602C21.6091 12.5851 22.0366 12.0844 22.6555 12.0056C23.3643 11.9156 23.9832 12.4557 23.9944 13.1927C24.0057 14.3347 24.0001 15.4824 24.0001 16.6245C24.0001 17.4571 24.0057 18.2954 24.0001 19.128C23.9888 21.6259 22.3404 23.5499 19.8763 23.9494C19.6006 23.9944 19.3137 23.9944 19.038 23.9944C16.6752 24 14.3235 23.9944 11.9719 23.9944Z" fill="#212A39"/>
<path d="M21.5021 4.12377C21.4346 4.21379 21.3783 4.31505 21.2995 4.39382C18.5147 7.17863 15.7299 9.96344 12.9507 12.7482C12.5738 13.1252 12.1462 13.2996 11.6287 13.1364C10.8298 12.8833 10.5372 11.9212 11.0548 11.263C11.128 11.1674 11.218 11.083 11.3024 10.9986C14.0703 8.22504 16.8438 5.45711 19.6174 2.68917C19.6962 2.61041 19.7974 2.55978 19.8874 2.49789C19.8649 2.46414 19.8424 2.43038 19.8199 2.39663C19.7187 2.39663 19.623 2.39663 19.5218 2.39663C18.2109 2.39663 16.8945 2.40788 15.5837 2.391C14.661 2.37975 14.0984 1.41773 14.5429 0.624476C14.7904 0.191284 15.173 3.67127e-06 15.668 3.67127e-06C17.187 0.00562955 18.706 3.67127e-06 20.225 3.67127e-06C21.0689 3.67127e-06 21.9128 -0.00562221 22.7566 3.67127e-06C23.5049 0.00562955 23.9943 0.489455 24 1.23207C24.0056 3.61182 24.0056 5.99156 24 8.37694C24 9.00704 23.5724 9.50211 22.9929 9.58088C22.3797 9.65964 21.834 9.32771 21.6652 8.74825C21.6202 8.59072 21.6146 8.41632 21.6146 8.24754C21.609 6.98172 21.6146 5.7159 21.6146 4.45007C21.6146 4.36006 21.6146 4.27005 21.6146 4.18003C21.5696 4.16315 21.5358 4.14065 21.5021 4.12377Z" fill="#212A39"/>
</g>
<defs>
<clipPath id="clip0_58_532">
<rect width="24" height="24" fill="white"/>
</clipPath>
</defs>
</svg>
