<svg xmlns="http://www.w3.org/2000/svg" width="16" height="15" viewBox="0 0 16 15">
    <g fill="#828282" fill-rule="nonzero">
        <path d="M15.916 1.45a.288.288 0 0 0-.205-.085h-2.606V.305a.29.29 0 0 0-.29-.29H3.177a.291.291 0 0 0-.29.29v1.06H.29a.29.29 0 0 0-.29.29l.001 1.467c0 .953.322 1.852.88 2.632.536.75 1.29 1.39 2.193 1.89a5.11 5.11 0 0 0 4.634 3.737v2.9H4.719a.29.29 0 1 0 0 .578h6.554a.29.29 0 1 0 0-.578H8.285v-2.9a5.11 5.11 0 0 0 4.632-3.73c.906-.5 1.662-1.143 2.2-1.893.56-.78.883-1.68.883-2.636V1.654c0-.077-.03-.15-.084-.204zM1.35 5.417C.853 4.721.58 3.944.578 3.122V1.943h2.31v4.338c0 .203.013.403.036.6-.644-.417-1.18-.914-1.574-1.464zm11.176.864A4.515 4.515 0 0 1 11.2 9.484a4.515 4.515 0 0 1-3.203 1.327 4.515 4.515 0 0 1-3.203-1.327 4.513 4.513 0 0 1-1.327-3.203V.594h9.06v5.687zm2.896-3.159c0 .824-.276 1.601-.775 2.299-.395.551-.933 1.048-1.58 1.466.024-.199.037-.4.037-.606V1.943h2.318v1.18z" opacity=".82"/>
        <path d="M10.373 4.391a.29.29 0 0 0-.2-.19l-1.245-.33L8.23 2.79a.29.29 0 0 0-.486 0l-.699 1.08-1.244.331a.288.288 0 0 0-.15.462l.812.999-.07 1.285a.288.288 0 0 0 .393.285l1.2-.463 1.202.463a.288.288 0 0 0 .393-.285l-.07-1.285.812-.999a.289.289 0 0 0 .05-.272zm-1.382.993a.29.29 0 0 0-.064.198l.052.95-.888-.343a.29.29 0 0 0-.208 0l-.888.343.052-.95a.291.291 0 0 0-.064-.198l-.6-.738.919-.245a.291.291 0 0 0 .168-.122l.517-.8.517.8c.039.06.1.104.169.122l.919.244-.6.739z"/>
    </g>
</svg>
